<svg xmlns="http://www.w3.org/2000/svg" version="1.1" xmlns:xlink="http://www.w3.org/1999/xlink" xmlns:svgjs="http://svgjs.dev/svgjs" width="1000" height="1000" viewBox="0 0 1000 1000"><rect width="1000" height="1000" fill="#ed2647"></rect><g transform="matrix(0.7,0,0,0.7,149.57575757575756,282.1265587044535)"><svg viewBox="0 0 396 247" data-background-color="#ed2647" preserveAspectRatio="xMidYMid meet" height="623" width="1000" xmlns="http://www.w3.org/2000/svg" xmlns:xlink="http://www.w3.org/1999/xlink"><g id="tight-bounds" transform="matrix(1,0,0,1,0.2400000000000091,-0.09999999999999432)"><svg viewBox="0 0 395.52 247.2" height="247.2" width="395.52"><g><svg></svg></g><g><svg viewBox="0 0 395.52 247.2" height="247.2" width="395.52"><mask id="f947ab93-1cd2-40e1-98af-a2be0c01e99d"><rect width="395.52" height="247.2" fill="white"></rect><g transform="matrix(1,0,0,1,0,74.28916110304789)" id="clone"><svg viewBox="0 0 395.52 98.62167779390421" height="98.62167779390421" width="395.52"><g><svg viewBox="0 0 395.52 98.62167779390421" height="98.62167779390421" width="395.52"><g><svg viewBox="0 0 395.52 98.62167779390421" height="98.62167779390421" width="395.52"><g><svg viewBox="0 0 395.52 98.62167779390421" height="98.62167779390421" width="395.52"><g id="SvgjsG1192"><svg viewBox="0 0 395.52 98.62167779390421" height="98.62167779390421" width="395.52" id="SvgjsSvg1191"><g><svg viewBox="0 0 395.52 98.62167779390421" height="98.62167779390421" width="395.52"><g transform="matrix(1,0,0,1,0,0)"><svg width="395.52" viewBox="0.7999999999999998 -40.35 173.23999999999998 43.95" height="98.62167779390421" data-palette-color="#ffffff"><path d="M24 0L19.45 0 19.45-16.2 8.35-16.2 8.35 0 3.8 0 3.8-34.45 8.35-34.45 8.35-19.95 19.45-19.95 19.45-34.45 24-34.45 24 0ZM48.5-13.95Q48.5-12.85 48.4-11.65L48.4-11.65 34.6-11.65Q34.8-6.9 36.17-4.95 37.55-3 40.1-3L40.1-3Q41.75-3 43.05-3.53 44.35-4.05 45.75-5.2L45.75-5.2 47.7-2.55Q44.4 0.6 39.95 0.6L39.95 0.6Q35.25 0.6 32.65-2.88 30.05-6.35 30.05-12.9L30.05-12.9Q30.05-19.45 32.52-23.18 35-26.9 39.5-26.9L39.5-26.9Q43.85-26.9 46.17-23.63 48.5-20.35 48.5-13.95L48.5-13.95ZM44.25-14.9L44.25-15.25Q44.25-19.55 43.1-21.5 41.95-23.45 39.5-23.45L39.5-23.45Q37.3-23.45 36.05-21.48 34.8-19.5 34.6-14.9L34.6-14.9 44.25-14.9ZM60.55-26.9Q64.9-26.9 68-23.95L68-23.95 66.09-21.4Q64.7-22.45 63.4-22.98 62.1-23.5 60.65-23.5L60.65-23.5Q58.9-23.5 57.87-22.53 56.85-21.55 56.85-19.85L56.85-19.85Q56.85-18.2 57.85-17.25 58.85-16.3 61.65-15.3L61.65-15.3Q65.25-14 66.95-12.2 68.65-10.4 68.65-7.3L68.65-7.3Q68.65-3.55 66.12-1.48 63.6 0.6 59.85 0.6L59.85 0.6Q54.85 0.6 51.5-2.85L51.5-2.85 53.8-5.3Q56.6-2.85 59.75-2.85L59.75-2.85Q61.75-2.85 62.95-3.95 64.15-5.05 64.15-7.05L64.15-7.05Q64.15-8.4 63.7-9.25 63.25-10.1 62.15-10.8 61.05-11.5 58.95-12.25L58.95-12.25Q55.45-13.55 53.95-15.33 52.45-17.1 52.45-19.7L52.45-19.7Q52.45-21.7 53.47-23.35 54.5-25 56.35-25.95 58.2-26.9 60.55-26.9L60.55-26.9ZM84.54-26.9Q87.39-26.9 89.09-24.85 90.79-22.8 90.79-19.35L90.79-19.35 90.79 0 86.39 0 86.39-18.75Q86.39-21.3 85.67-22.38 84.94-23.45 83.49-23.45L83.49-23.45Q80.64-23.45 78.19-18.55L78.19-18.55 78.19 0 73.79 0 73.79-36.9 78.19-37.35 78.19-22.65Q79.44-24.75 80.92-25.83 82.39-26.9 84.54-26.9L84.54-26.9ZM113.09-5.6Q113.09-4.2 113.49-3.53 113.89-2.85 114.79-2.45L114.79-2.45 113.84 0.6Q111.99 0.3 110.92-0.58 109.84-1.45 109.39-3.2L109.39-3.2Q107.24 0.6 103.09 0.6L103.09 0.6Q99.84 0.6 97.92-1.58 95.99-3.75 95.99-7.35L95.99-7.35Q95.99-11.55 98.59-13.78 101.19-16 106.14-16L106.14-16 108.74-16 108.74-18.4Q108.74-21 107.72-22.2 106.69-23.4 104.54-23.4L104.54-23.4Q101.99-23.4 98.59-22.05L98.59-22.05 97.49-25.15Q101.54-26.9 105.09-26.9L105.09-26.9Q109.14-26.9 111.12-24.73 113.09-22.55 113.09-18.6L113.09-18.6 113.09-5.6ZM103.99-2.7Q107.09-2.7 108.74-6.9L108.74-6.9 108.74-13.05 106.64-13.05Q103.49-13.05 102.02-11.7 100.54-10.35 100.54-7.55L100.54-7.55Q100.54-5.15 101.44-3.93 102.34-2.7 103.99-2.7L103.99-2.7ZM135.64-5.6Q135.64-4.2 136.04-3.53 136.44-2.85 137.34-2.45L137.34-2.45 136.39 0.6Q134.54 0.3 133.46-0.58 132.39-1.45 131.94-3.2L131.94-3.2Q129.79 0.6 125.64 0.6L125.64 0.6Q122.39 0.6 120.46-1.58 118.54-3.75 118.54-7.35L118.54-7.35Q118.54-11.55 121.14-13.78 123.74-16 128.69-16L128.69-16 131.29-16 131.29-18.4Q131.29-21 130.26-22.2 129.24-23.4 127.09-23.4L127.09-23.4Q124.54-23.4 121.14-22.05L121.14-22.05 120.04-25.15Q124.09-26.9 127.64-26.9L127.64-26.9Q131.69-26.9 133.66-24.73 135.64-22.55 135.64-18.6L135.64-18.6 135.64-5.6ZM126.54-2.7Q129.64-2.7 131.29-6.9L131.29-6.9 131.29-13.05 129.19-13.05Q126.04-13.05 124.56-11.7 123.09-10.35 123.09-7.55L123.09-7.55Q123.09-5.15 123.99-3.93 124.89-2.7 126.54-2.7L126.54-2.7ZM165.19-26.9Q167.84-26.9 169.44-24.83 171.04-22.75 171.04-19.35L171.04-19.35 171.04 0 166.74 0 166.74-18.8Q166.74-21.3 166.06-22.4 165.39-23.5 164.09-23.5L164.09-23.5Q161.44-23.5 159.19-18.8L159.19-18.8 159.19 0 154.89 0 154.89-18.8Q154.89-23.5 152.24-23.5L152.24-23.5Q150.84-23.5 149.56-22.25 148.28-21 147.28-18.8L147.28-18.8 147.28 0 142.99 0 142.99-26.35 146.78-26.35 147.09-22.55Q149.59-26.9 153.34-26.9L153.34-26.9Q155.34-26.9 156.71-25.68 158.09-24.45 158.69-22.2L158.69-22.2Q161.39-26.9 165.19-26.9L165.19-26.9Z" opacity="1" transform="matrix(1,0,0,1,0,0)" fill="black" class="wordmark-text-0" id="SvgjsPath1190" stroke-width="5" stroke="black" stroke-linejoin="round"></path></svg></g></svg></g></svg></g></svg></g><g></g></svg></g></svg></g></svg></g></mask><g mask="url(#f947ab93-1cd2-40e1-98af-a2be0c01e99d)"><g><path d="M270.234 247.2h-32.649v-116.245h-79.65v116.245h-32.649v-247.2h32.649v104.046h79.65v-104.046h32.649z" fill="#ffffff" fill-rule="nonzero" stroke="none" stroke-width="1" stroke-linecap="butt" stroke-linejoin="miter" stroke-miterlimit="10" stroke-dasharray="" stroke-dashoffset="0" font-family="none" font-weight="none" font-size="none" text-anchor="none" style="mix-blend-mode: normal" data-fill-palette-color="tertiary"></path></g></g><g transform="matrix(1,0,0,1,0,74.28916110304789)"><svg viewBox="0 0 395.52 98.62167779390421" height="98.62167779390421" width="395.52"><g><svg viewBox="0 0 395.52 98.62167779390421" height="98.62167779390421" width="395.52"><g><svg viewBox="0 0 395.52 98.62167779390421" height="98.62167779390421" width="395.52"><g><svg viewBox="0 0 395.52 98.62167779390421" height="98.62167779390421" width="395.52"><g id="textblocktransform"><svg viewBox="0 0 395.52 98.62167779390421" height="98.62167779390421" width="395.52" id="textblock"><g><svg viewBox="0 0 395.52 98.62167779390421" height="98.62167779390421" width="395.52"><g transform="matrix(1,0,0,1,0,0)"><svg width="395.52" viewBox="0.7999999999999998 -40.35 173.23999999999998 43.95" height="98.62167779390421" data-palette-color="#ffffff"><path d="M24 0L19.45 0 19.45-16.2 8.35-16.2 8.35 0 3.8 0 3.8-34.45 8.35-34.45 8.35-19.95 19.45-19.95 19.45-34.45 24-34.45 24 0ZM48.5-13.95Q48.5-12.85 48.4-11.65L48.4-11.65 34.6-11.65Q34.8-6.9 36.17-4.95 37.55-3 40.1-3L40.1-3Q41.75-3 43.05-3.53 44.35-4.05 45.75-5.2L45.75-5.2 47.7-2.55Q44.4 0.6 39.95 0.6L39.95 0.6Q35.25 0.6 32.65-2.88 30.05-6.35 30.05-12.9L30.05-12.9Q30.05-19.45 32.52-23.18 35-26.9 39.5-26.9L39.5-26.9Q43.85-26.9 46.17-23.63 48.5-20.35 48.5-13.95L48.5-13.95ZM44.25-14.9L44.25-15.25Q44.25-19.55 43.1-21.5 41.95-23.45 39.5-23.45L39.5-23.45Q37.3-23.45 36.05-21.48 34.8-19.5 34.6-14.9L34.6-14.9 44.25-14.9ZM60.55-26.9Q64.9-26.9 68-23.95L68-23.95 66.09-21.4Q64.7-22.45 63.4-22.98 62.1-23.5 60.65-23.5L60.65-23.5Q58.9-23.5 57.87-22.53 56.85-21.55 56.85-19.85L56.85-19.85Q56.85-18.2 57.85-17.25 58.85-16.3 61.65-15.3L61.65-15.3Q65.25-14 66.95-12.2 68.65-10.4 68.65-7.3L68.65-7.3Q68.65-3.55 66.12-1.48 63.6 0.6 59.85 0.6L59.85 0.6Q54.85 0.6 51.5-2.85L51.5-2.85 53.8-5.3Q56.6-2.85 59.75-2.85L59.75-2.85Q61.75-2.85 62.95-3.95 64.15-5.05 64.15-7.05L64.15-7.05Q64.15-8.4 63.7-9.25 63.25-10.1 62.15-10.8 61.05-11.5 58.95-12.25L58.95-12.25Q55.45-13.55 53.95-15.33 52.45-17.1 52.45-19.7L52.45-19.7Q52.45-21.7 53.47-23.35 54.5-25 56.35-25.95 58.2-26.9 60.55-26.9L60.55-26.9ZM84.54-26.9Q87.39-26.9 89.09-24.85 90.79-22.8 90.79-19.35L90.79-19.35 90.79 0 86.39 0 86.39-18.75Q86.39-21.3 85.67-22.38 84.94-23.45 83.49-23.45L83.49-23.45Q80.64-23.45 78.19-18.55L78.19-18.55 78.19 0 73.79 0 73.79-36.9 78.19-37.35 78.19-22.65Q79.44-24.75 80.92-25.83 82.39-26.9 84.54-26.9L84.54-26.9ZM113.09-5.6Q113.09-4.2 113.49-3.53 113.89-2.85 114.79-2.45L114.79-2.45 113.84 0.6Q111.99 0.3 110.92-0.58 109.84-1.45 109.39-3.2L109.39-3.2Q107.24 0.6 103.09 0.6L103.09 0.6Q99.84 0.6 97.92-1.58 95.99-3.75 95.99-7.35L95.99-7.35Q95.99-11.55 98.59-13.78 101.19-16 106.14-16L106.14-16 108.74-16 108.74-18.4Q108.74-21 107.72-22.2 106.69-23.4 104.54-23.4L104.54-23.4Q101.99-23.4 98.59-22.05L98.59-22.05 97.49-25.15Q101.54-26.9 105.09-26.9L105.09-26.9Q109.14-26.9 111.12-24.73 113.09-22.55 113.09-18.6L113.09-18.6 113.09-5.6ZM103.99-2.7Q107.09-2.7 108.74-6.9L108.74-6.9 108.74-13.05 106.64-13.05Q103.49-13.05 102.02-11.7 100.54-10.35 100.54-7.55L100.54-7.55Q100.54-5.15 101.44-3.93 102.34-2.7 103.99-2.7L103.99-2.7ZM135.64-5.6Q135.64-4.2 136.04-3.53 136.44-2.85 137.34-2.45L137.34-2.45 136.39 0.6Q134.54 0.3 133.46-0.58 132.39-1.45 131.94-3.2L131.94-3.2Q129.79 0.6 125.64 0.6L125.64 0.6Q122.39 0.6 120.46-1.58 118.54-3.75 118.54-7.35L118.54-7.35Q118.54-11.55 121.14-13.78 123.74-16 128.69-16L128.69-16 131.29-16 131.29-18.4Q131.29-21 130.26-22.2 129.24-23.4 127.09-23.4L127.09-23.4Q124.54-23.4 121.14-22.05L121.14-22.05 120.04-25.15Q124.09-26.9 127.64-26.9L127.64-26.9Q131.69-26.9 133.66-24.73 135.64-22.55 135.64-18.6L135.64-18.6 135.64-5.6ZM126.54-2.7Q129.64-2.7 131.29-6.9L131.29-6.9 131.29-13.05 129.19-13.05Q126.04-13.05 124.56-11.7 123.09-10.35 123.09-7.55L123.09-7.55Q123.09-5.15 123.99-3.93 124.89-2.7 126.54-2.7L126.54-2.7ZM165.19-26.9Q167.84-26.9 169.44-24.83 171.04-22.75 171.04-19.35L171.04-19.35 171.04 0 166.74 0 166.74-18.8Q166.74-21.3 166.06-22.4 165.39-23.5 164.09-23.5L164.09-23.5Q161.44-23.5 159.19-18.8L159.19-18.8 159.19 0 154.89 0 154.89-18.8Q154.89-23.5 152.24-23.5L152.24-23.5Q150.84-23.5 149.56-22.25 148.28-21 147.28-18.8L147.28-18.8 147.28 0 142.99 0 142.99-26.35 146.78-26.35 147.09-22.55Q149.59-26.9 153.34-26.9L153.34-26.9Q155.34-26.9 156.71-25.68 158.09-24.45 158.69-22.2L158.69-22.2Q161.39-26.9 165.19-26.9L165.19-26.9Z" opacity="1" transform="matrix(1,0,0,1,0,0)" fill="#ffffff" class="wordmark-text-0" data-fill-palette-color="primary" id="text-0"></path></svg></g></svg></g></svg></g></svg></g><g></g></svg></g></svg></g></svg></g></svg></g><defs></defs></svg><rect width="395.52" height="247.2" fill="none" stroke="none" visibility="hidden"></rect></g></svg></g></svg>